<mxfile host="Electron" modified="2023-11-15T22:06:41.905Z" agent="Mozilla/5.0 (X11; Linux x86_64) AppleWebKit/537.36 (KHTML, like Gecko) draw.io/21.6.1 Chrome/112.0.5615.204 Electron/24.6.1 Safari/537.36" etag="KHHxdtKsxJ5mMXl7SO2w" version="21.6.1" type="device" pages="2">
  <diagram name="workflow_scrapping" id="qmEf1X6gW0tV5kBoPvZ4">
    <mxGraphModel dx="1434" dy="857" grid="1" gridSize="10" guides="1" tooltips="1" connect="1" arrows="1" fold="1" page="1" pageScale="1" pageWidth="850" pageHeight="1100" math="0" shadow="0">
      <root>
        <mxCell id="0" />
        <mxCell id="1" parent="0" />
        <mxCell id="t--RB6lIYop31xNaissE-3" value="" style="edgeStyle=orthogonalEdgeStyle;rounded=0;orthogonalLoop=1;jettySize=auto;html=1;" edge="1" parent="1" source="t--RB6lIYop31xNaissE-1" target="t--RB6lIYop31xNaissE-2">
          <mxGeometry relative="1" as="geometry" />
        </mxCell>
        <mxCell id="t--RB6lIYop31xNaissE-1" value="Get BOE dataset" style="rounded=1;whiteSpace=wrap;html=1;" vertex="1" parent="1">
          <mxGeometry x="120" y="320" width="120" height="60" as="geometry" />
        </mxCell>
        <mxCell id="t--RB6lIYop31xNaissE-8" style="edgeStyle=orthogonalEdgeStyle;rounded=0;orthogonalLoop=1;jettySize=auto;html=1;entryX=0;entryY=0.5;entryDx=0;entryDy=0;" edge="1" parent="1" source="t--RB6lIYop31xNaissE-2" target="t--RB6lIYop31xNaissE-7">
          <mxGeometry relative="1" as="geometry" />
        </mxCell>
        <mxCell id="t--RB6lIYop31xNaissE-9" style="edgeStyle=orthogonalEdgeStyle;rounded=0;orthogonalLoop=1;jettySize=auto;html=1;entryX=0;entryY=0.5;entryDx=0;entryDy=0;" edge="1" parent="1" source="t--RB6lIYop31xNaissE-2" target="t--RB6lIYop31xNaissE-4">
          <mxGeometry relative="1" as="geometry" />
        </mxCell>
        <mxCell id="t--RB6lIYop31xNaissE-2" value="Download Bulletin" style="whiteSpace=wrap;html=1;rounded=1;" vertex="1" parent="1">
          <mxGeometry x="320" y="320" width="120" height="60" as="geometry" />
        </mxCell>
        <mxCell id="t--RB6lIYop31xNaissE-4" value="Generate Jsons" style="whiteSpace=wrap;html=1;rounded=1;" vertex="1" parent="1">
          <mxGeometry x="520" y="240" width="120" height="60" as="geometry" />
        </mxCell>
        <mxCell id="t--RB6lIYop31xNaissE-11" value="" style="edgeStyle=orthogonalEdgeStyle;rounded=0;orthogonalLoop=1;jettySize=auto;html=1;endArrow=none;endFill=0;startArrow=classic;startFill=1;" edge="1" parent="1" source="t--RB6lIYop31xNaissE-7" target="t--RB6lIYop31xNaissE-10">
          <mxGeometry relative="1" as="geometry" />
        </mxCell>
        <mxCell id="t--RB6lIYop31xNaissE-7" value="Generate TTL" style="whiteSpace=wrap;html=1;rounded=1;" vertex="1" parent="1">
          <mxGeometry x="520" y="400" width="120" height="60" as="geometry" />
        </mxCell>
        <mxCell id="t--RB6lIYop31xNaissE-10" value="Ontology (.owl file)" style="whiteSpace=wrap;html=1;rounded=1;" vertex="1" parent="1">
          <mxGeometry x="520" y="520" width="120" height="60" as="geometry" />
        </mxCell>
      </root>
    </mxGraphModel>
  </diagram>
  <diagram id="w3eg6DESo8oXKCD1UtYc" name="workflow_elasticsearch">
    <mxGraphModel dx="1434" dy="857" grid="1" gridSize="10" guides="1" tooltips="1" connect="1" arrows="1" fold="1" page="1" pageScale="1" pageWidth="850" pageHeight="1100" math="0" shadow="0">
      <root>
        <mxCell id="0" />
        <mxCell id="1" parent="0" />
        <mxCell id="llSOLzCceRLhRoF2prY8-1" value="" style="edgeStyle=orthogonalEdgeStyle;rounded=0;orthogonalLoop=1;jettySize=auto;html=1;" edge="1" parent="1" source="llSOLzCceRLhRoF2prY8-2" target="llSOLzCceRLhRoF2prY8-5">
          <mxGeometry relative="1" as="geometry" />
        </mxCell>
        <mxCell id="llSOLzCceRLhRoF2prY8-2" value="Connect to ElasticSearch" style="rounded=1;whiteSpace=wrap;html=1;" vertex="1" parent="1">
          <mxGeometry x="120" y="320" width="120" height="60" as="geometry" />
        </mxCell>
        <mxCell id="llSOLzCceRLhRoF2prY8-4" style="edgeStyle=orthogonalEdgeStyle;rounded=0;orthogonalLoop=1;jettySize=auto;html=1;entryX=0;entryY=0.5;entryDx=0;entryDy=0;" edge="1" parent="1" source="llSOLzCceRLhRoF2prY8-5" target="llSOLzCceRLhRoF2prY8-6">
          <mxGeometry relative="1" as="geometry" />
        </mxCell>
        <mxCell id="llSOLzCceRLhRoF2prY8-5" value="Index data" style="whiteSpace=wrap;html=1;rounded=1;" vertex="1" parent="1">
          <mxGeometry x="320" y="320" width="120" height="60" as="geometry" />
        </mxCell>
        <mxCell id="llSOLzCceRLhRoF2prY8-6" value="Create Search" style="whiteSpace=wrap;html=1;rounded=1;" vertex="1" parent="1">
          <mxGeometry x="520" y="320" width="120" height="60" as="geometry" />
        </mxCell>
      </root>
    </mxGraphModel>
  </diagram>
</mxfile>
